<svg width="19" height="10" viewBox="0 0 19 10" fill="none" xmlns="http://www.w3.org/2000/svg">
<path d="M9.23417 0C3.43704 0 0 4.87407 0 4.87407C0 4.87407 3.43704 9.74815 9.23417 9.74815C14.8938 9.74815 18.3309 4.87407 18.3309 4.87407C18.3309 4.87407 14.8938 0 9.23417 0ZM9.16543 1.62469C11.7088 1.62469 13.7481 3.08691 13.7481 4.87407C13.7481 6.67748 11.7088 8.12346 9.16543 8.12346C6.64494 8.12346 4.58272 6.67748 4.58272 4.87407C4.58272 3.08691 6.64494 1.62469 9.16543 1.62469ZM9.16543 3.24938C7.90519 3.24938 6.87407 3.98049 6.87407 4.87407C6.87407 5.76765 7.90519 6.49877 9.16543 6.49877C10.4257 6.49877 11.4568 5.76765 11.4568 4.87407C11.4568 4.71161 11.3651 4.56538 11.3193 4.41916C11.136 4.67911 10.7694 4.87407 10.3111 4.87407C9.66953 4.87407 9.16543 4.51664 9.16543 4.06173C9.16543 3.73679 9.4404 3.47684 9.80701 3.34686C9.60079 3.29812 9.39457 3.24938 9.16543 3.24938Z" fill="black"/>
</svg>
